<?xml version='1.0' encoding='utf-8'?>
<score-partwise>
    <work>
        <work-title>Chorando se foi</work-title>
    </work>
    <identification>
        <creator type="composer">Gonzalo Hermosa</creator>
        <rights>Ami Camel</rights>
        <encoding>
            <software>MuseScore 2.0.3</software>
            <encoding-date>2016-05-05</encoding-date>
            <supports element="accidental" type="yes" />
            <supports element="beam" type="yes" />
            <supports attribute="new-page" element="print" type="yes" value="yes" />
            <supports attribute="new-system" element="print" type="yes" value="yes" />
            <supports element="stem" type="yes" />
        </encoding>
        <source>http://musescore.com/score/2103576</source>
    </identification>
    <defaults>
        <scaling>
            <millimeters>7.05556</millimeters>
            <tenths>40</tenths>
        </scaling>
        <page-layout>
            <page-height>1683.36</page-height>
            <page-width>1190.88</page-width>
            <page-margins type="even">
                <left-margin>56.6929</left-margin>
                <right-margin>56.6929</right-margin>
                <top-margin>56.6929</top-margin>
                <bottom-margin>113.386</bottom-margin>
            </page-margins>
            <page-margins type="odd">
                <left-margin>56.6929</left-margin>
                <right-margin>56.6929</right-margin>
                <top-margin>56.6929</top-margin>
                <bottom-margin>113.386</bottom-margin>
            </page-margins>
        </page-layout>
        <word-font font-family="FreeSerif" font-size="10" />
        <lyric-font font-family="FreeSerif" font-size="11" />
    </defaults>
    <credit page="1">
        <credit-words default-x="595.44" default-y="1626.67" font-size="24" justify="center" valign="top">Chorando se
            foi
        </credit-words>
    </credit>
    <credit page="1">
        <credit-words default-x="595.44" default-y="1569.97" font-size="14" justify="center" valign="top">Lambada
        </credit-words>
    </credit>
    <credit page="1">
        <credit-words default-x="1134.19" default-y="1526.67" font-size="12" justify="right" valign="bottom">Gonzalo
            Hermosa
        </credit-words>
    </credit>
    <credit page="1">
        <credit-words default-x="595.44" default-y="113.386" font-size="8" justify="center" valign="bottom">Ami Camel
        </credit-words>
    </credit>
    <part-list>
        <score-part id="P1">
            <part-name>P.f</part-name>
            <part-abbreviation>Pno.</part-abbreviation>
            <score-instrument id="P2-I1">
                <instrument-name>ピアノ</instrument-name>
            </score-instrument>
            <midi-device id="P2-I1" port="1" />
            <midi-instrument id="P2-I1">
                <midi-channel>2</midi-channel>
                <midi-program>1</midi-program>
                <volume>78.7402</volume>
                <pan>0</pan>
            </midi-instrument>
        </score-part>
    </part-list>
    <part id="P1">
        <measure number="1" width="297.32">
            <print>
                <staff-layout number="1">
                    <staff-distance>65.00</staff-distance>
                </staff-layout>
                <staff-layout number="2">
                    <staff-distance>65.00</staff-distance>
                </staff-layout>
            </print>
            <attributes>
                <divisions>4</divisions>
                <key>
                    <fifths>-1</fifths>
                </key>
                <time>
                    <beats>4</beats>
                    <beat-type>4</beat-type>
                </time>
                <staves>2</staves>
                <clef number="1">
                    <sign>G</sign>
                    <line>2</line>
                </clef>
                <clef number="2">
                    <sign>F</sign>
                    <line>4</line>
                </clef>
            </attributes>
            <note>
                <rest />
                <duration>2</duration>
                <voice>1</voice>
                <type>eighth</type>
                <staff>1</staff>
            </note>
            <harmony print-frame="no">
                <root>
                    <root-step>D</root-step>
                </root>
                <kind text="m">minor</kind>
            </harmony>
            <note default-x="121.39" default-y="-130.00">
                <pitch>
                    <step>D</step>
                    <alter>1</alter><octave>4</octave>
                </pitch>
                <duration>2</duration>
                <voice>1</voice>
                <type>eighth</type>
                <stem>down</stem>
                <staff>1</staff>
            </note>
            <note default-x="121.39" default-y="-115.00">
                <chord />
                <pitch>
                    <step>G</step>
                    <alter>1</alter><octave>4</octave>
                </pitch>
                <duration>2</duration>
                <voice>1</voice>
                <type>eighth</type>
                <stem>down</stem>
                <staff>1</staff>
            </note>
            <note default-x="121.39" default-y="-105.00">
                <chord />
                <pitch>
                    <step>B</step>
                    <octave>4</octave>
                </pitch>
                <duration>2</duration>
                <voice>1</voice>
                <type>eighth</type>
                <stem>down</stem>
                <staff>1</staff>
            </note>
            <note>
                <rest />
                <duration>2</duration>
                <voice>1</voice>
                <type>eighth</type>
                <staff>1</staff>
            </note>
            <note default-x="174.15" default-y="-130.00">
                <pitch>
                    <step>D</step>
                    <alter>1</alter><octave>4</octave>
                </pitch>
                <duration>2</duration>
                <voice>1</voice>
                <type>eighth</type>
                <stem>down</stem>
                <staff>1</staff>
            </note>
            <note default-x="174.15" default-y="-115.00">
                <chord />
                <pitch>
                    <step>G</step>
                    <alter>1</alter><octave>4</octave>
                </pitch>
                <duration>2</duration>
                <voice>1</voice>
                <type>eighth</type>
                <stem>down</stem>
                <staff>1</staff>
            </note>
            <note default-x="174.15" default-y="-105.00">
                <chord />
                <pitch>
                    <step>B</step>
                    <octave>4</octave>
                </pitch>
                <duration>2</duration>
                <voice>1</voice>
                <type>eighth</type>
                <stem>down</stem>
                <staff>1</staff>
            </note>
            <note>
                <rest />
                <duration>2</duration>
                <voice>1</voice>
                <type>eighth</type>
                <staff>1</staff>
            </note>
            <note default-x="219.80" default-y="-130.00">
                <pitch>
                    <step>D</step>
                    <alter>1</alter><octave>4</octave>
                </pitch>
                <duration>2</duration>
                <voice>1</voice>
                <type>eighth</type>
                <stem>down</stem>
                <staff>1</staff>
            </note>
            <note default-x="219.80" default-y="-115.00">
                <chord />
                <pitch>
                    <step>G</step>
                    <alter>1</alter><octave>4</octave>
                </pitch>
                <duration>2</duration>
                <voice>1</voice>
                <type>eighth</type>
                <stem>down</stem>
                <staff>1</staff>
            </note>
            <note default-x="219.80" default-y="-105.00">
                <chord />
                <pitch>
                    <step>B</step>
                    <octave>4</octave>
                </pitch>
                <duration>2</duration>
                <voice>1</voice>
                <type>eighth</type>
                <stem>down</stem>
                <staff>1</staff>
            </note>
            <note>
                <rest />
                <duration>2</duration>
                <voice>1</voice>
                <type>eighth</type>
                <staff>1</staff>
            </note>
            <note default-x="272.55" default-y="-130.00">
                <pitch>
                    <step>D</step>
                    <alter>1</alter><octave>4</octave>
                </pitch>
                <duration>2</duration>
                <voice>1</voice>
                <type>eighth</type>
                <stem>down</stem>
                <staff>1</staff>
            </note>
            <note default-x="272.55" default-y="-115.00">
                <chord />
                <pitch>
                    <step>G</step>
                    <alter>1</alter><octave>4</octave>
                </pitch>
                <duration>2</duration>
                <voice>1</voice>
                <type>eighth</type>
                <stem>down</stem>
                <staff>1</staff>
            </note>
            <note default-x="272.55" default-y="-105.00">
                <chord />
                <pitch>
                    <step>B</step>
                    <octave>4</octave>
                </pitch>
                <duration>2</duration>
                <voice>1</voice>
                <type>eighth</type>
                <stem>down</stem>
                <staff>1</staff>
            </note>
        </measure>
        <measure number="2" width="225.35">
            <note>
                <rest />
                <duration>2</duration>
                <voice>1</voice>
                <type>eighth</type>
                <staff>1</staff>
            </note>
            <harmony print-frame="no">
                <root>
                    <root-step>D</root-step>
                </root>
                <kind text="m">minor</kind>
            </harmony>
            <note default-x="36.42" default-y="-130.00">
                <pitch>
                    <step>D</step>
                    <alter>1</alter><octave>4</octave>
                </pitch>
                <duration>2</duration>
                <voice>1</voice>
                <type>eighth</type>
                <stem>down</stem>
                <staff>1</staff>
            </note>
            <note default-x="36.42" default-y="-115.00">
                <chord />
                <pitch>
                    <step>G</step>
                    <alter>1</alter><octave>4</octave>
                </pitch>
                <duration>2</duration>
                <voice>1</voice>
                <type>eighth</type>
                <stem>down</stem>
                <staff>1</staff>
            </note>
            <note default-x="36.42" default-y="-105.00">
                <chord />
                <pitch>
                    <step>B</step>
                    <octave>4</octave>
                </pitch>
                <duration>2</duration>
                <voice>1</voice>
                <type>eighth</type>
                <stem>down</stem>
                <staff>1</staff>
            </note>
            <note>
                <rest />
                <duration>2</duration>
                <voice>1</voice>
                <type>eighth</type>
                <staff>1</staff>
            </note>
            <note default-x="91.45" default-y="-130.00">
                <pitch>
                    <step>D</step>
                    <alter>1</alter><octave>4</octave>
                </pitch>
                <duration>2</duration>
                <voice>1</voice>
                <type>eighth</type>
                <stem>down</stem>
                <staff>1</staff>
            </note>
            <note default-x="91.45" default-y="-115.00">
                <chord />
                <pitch>
                    <step>G</step>
                    <alter>1</alter><octave>4</octave>
                </pitch>
                <duration>2</duration>
                <voice>1</voice>
                <type>eighth</type>
                <stem>down</stem>
                <staff>1</staff>
            </note>
            <note default-x="91.45" default-y="-105.00">
                <chord />
                <pitch>
                    <step>B</step>
                    <octave>4</octave>
                </pitch>
                <duration>2</duration>
                <voice>1</voice>
                <type>eighth</type>
                <stem>down</stem>
                <staff>1</staff>
            </note>
            <note>
                <rest />
                <duration>2</duration>
                <voice>1</voice>
                <type>eighth</type>
                <staff>1</staff>
            </note>
            <note default-x="139.90" default-y="-130.00">
                <pitch>
                    <step>D</step>
                    <alter>1</alter><octave>4</octave>
                </pitch>
                <duration>2</duration>
                <voice>1</voice>
                <type>eighth</type>
                <stem>down</stem>
                <staff>1</staff>
            </note>
            <note default-x="139.90" default-y="-115.00">
                <chord />
                <pitch>
                    <step>G</step>
                    <alter>1</alter><octave>4</octave>
                </pitch>
                <duration>2</duration>
                <voice>1</voice>
                <type>eighth</type>
                <stem>down</stem>
                <staff>1</staff>
            </note>
            <note default-x="139.90" default-y="-105.00">
                <chord />
                <pitch>
                    <step>B</step>
                    <octave>4</octave>
                </pitch>
                <duration>2</duration>
                <voice>1</voice>
                <type>eighth</type>
                <stem>down</stem>
                <staff>1</staff>
            </note>
            <note default-x="170.70" default-y="-130.00">
                <pitch>
                    <step>D</step>
                    <alter>1</alter><octave>4</octave>
                </pitch>
                <duration>4</duration>
                <voice>1</voice>
                <type>quarter</type>
                <stem>up</stem>
                <staff>1</staff>
            </note>
        </measure>
        <measure number="3" width="220.55">
            <harmony print-frame="no">
                <root>
                    <root-step>D</root-step>
                </root>
                <kind text="m">minor</kind>
            </harmony>
            <note default-x="12.00" default-y="-95.00">
                <pitch>
                    <step>D</step>
                    <alter>1</alter><octave>5</octave>
                </pitch>
                <duration>6</duration>
                <voice>1</voice>
                <type>quarter</type>
                <dot />
                <stem>down</stem>
                <staff>1</staff>
            </note>
            <note default-x="84.72" default-y="-100.00">
                <pitch>
                    <step>C</step>
                    <alter>1</alter><octave>5</octave>
                </pitch>
                <duration>2</duration>
                <voice>1</voice>
                <type>eighth</type>
                <stem>down</stem>
                <staff>1</staff>
            </note>
            <note default-x="110.29" default-y="-105.00">
                <pitch>
                    <step>B</step>
                    <octave>4</octave>
                </pitch>
                <duration>2</duration>
                <voice>1</voice>
                <type>eighth</type>
                <stem>down</stem>
                <staff>1</staff>
                <beam number="1">begin</beam>
            </note>
            <note default-x="135.86" default-y="-110.00">
                <pitch>
                    <step>A</step>
                    <alter>1</alter><octave>4</octave>
                </pitch>
                <duration>2</duration>
                <voice>1</voice>
                <type>eighth</type>
                <stem>down</stem>
                <staff>1</staff>
                <beam number="1">end</beam>
            </note>
            <note default-x="167.82" default-y="-115.00">
                <pitch>
                    <step>G</step>
                    <alter>1</alter><octave>4</octave>
                </pitch>
                <duration>4</duration>
                <voice>1</voice>
                <type>quarter</type>
                <stem>down</stem>
                <staff>1</staff>
            </note>
        </measure>
        <measure number="4" width="220.55">
            <harmony print-frame="no">
                <root>
                    <root-step>B</root-step>
                    <root-alter>-1</root-alter>
                </root>
                <kind>major</kind>
            </harmony>
            <note default-x="12.00" default-y="-115.00">
                <pitch>
                    <step>G</step>
                    <alter>1</alter><octave>4</octave>
                </pitch>
                <duration>2</duration>
                <voice>1</voice>
                <type>eighth</type>
                <stem>down</stem>
                <staff>1</staff>
                <beam number="1">begin</beam>
            </note>
            <note default-x="36.22" default-y="-105.00">
                <pitch>
                    <step>B</step>
                    <octave>4</octave>
                </pitch>
                <duration>2</duration>
                <voice>1</voice>
                <type>eighth</type>
                <stem>down</stem>
                <staff>1</staff>
                <beam number="1">continue</beam>
            </note>
            <note default-x="67.03" default-y="-110.00">
                <pitch>
                    <step>A</step>
                    <alter>1</alter><octave>4</octave>
                </pitch>
                <duration>2</duration>
                <voice>1</voice>
                <type>eighth</type>
                <stem>down</stem>
                <staff>1</staff>
                <beam number="1">continue</beam>
            </note>
            <note default-x="91.25" default-y="-115.00">
                <pitch>
                    <step>G</step>
                    <alter>1</alter><octave>4</octave>
                </pitch>
                <duration>2</duration>
                <voice>1</voice>
                <type>eighth</type>
                <stem>down</stem>
                <staff>1</staff>
                <beam number="1">end</beam>
            </note>
            <harmony print-frame="no">
                <root>
                    <root-step>C</root-step>
                </root>
                <kind>major</kind>
            </harmony>
            <note default-x="115.48" default-y="-120.00">
                <pitch>
                    <step>F</step>
                    <alter>1</alter><octave>4</octave>
                </pitch>
                <duration>2</duration>
                <voice>1</voice>
                <type>eighth</type>
                <stem>down</stem>
                <staff>1</staff>
                <beam number="1">begin</beam>
            </note>
            <note default-x="139.70" default-y="-115.00">
                <pitch>
                    <step>G</step>
                    <alter>1</alter><octave>4</octave>
                </pitch>
                <duration>2</duration>
                <voice>1</voice>
                <type>eighth</type>
                <stem>down</stem>
                <staff>1</staff>
                <beam number="1">continue</beam>
            </note>
            <note default-x="170.50" default-y="-130.00">
                <pitch>
                    <step>D</step>
                    <alter>1</alter><octave>4</octave>
                </pitch>
                <duration>2</duration>
                <voice>1</voice>
                <type>eighth</type>
                <stem>down</stem>
                <staff>1</staff>
                <beam number="1">continue</beam>
            </note>
            <note default-x="194.73" default-y="-135.00">
                <pitch>
                    <step>C</step>
                    <alter>1</alter><octave>4</octave>
                </pitch>
                <duration>2</duration>
                <voice>1</voice>
                <type>eighth</type>
                <stem>down</stem>
                <staff>1</staff>
                <beam number="1">end</beam>
            </note>
        </measure>
        <measure number="5" width="285.58">
            <print new-system="yes">
                <staff-layout number="1">
                    <staff-distance>65.00</staff-distance>
                </staff-layout>
                <staff-layout number="2">
                    <staff-distance>65.00</staff-distance>
                </staff-layout>
            </print>
            <harmony print-frame="no">
                <root>
                    <root-step>F</root-step>
                </root>
                <kind>major</kind>
            </harmony>
            <note default-x="76.91" default-y="-155.00">
                <pitch>
                    <step>F</step>
                    <alter>1</alter><octave>3</octave>
                </pitch>
                <duration>12</duration>
                <voice>1</voice>
                <type>half</type>
                <dot />
                <stem>up</stem>
                <staff>1</staff>
            </note>
            <note default-x="76.91" default-y="-140.00">
                <chord />
                <pitch>
                    <step>B</step>
                    <octave>3</octave>
                </pitch>
                <duration>12</duration>
                <voice>1</voice>
                <type>half</type>
                <dot />
                <stem>up</stem>
                <staff>1</staff>
            </note>
            <note default-x="76.91" default-y="-130.00">
                <chord />
                <pitch>
                    <step>D</step>
                    <alter>1</alter><octave>4</octave>
                </pitch>
                <duration>12</duration>
                <voice>1</voice>
                <type>half</type>
                <dot />
                <stem>up</stem>
                <staff>1</staff>
            </note>
            <note default-x="230.21" default-y="-130.00">
                <pitch>
                    <step>D</step>
                    <alter>1</alter><octave>4</octave>
                </pitch>
                <duration>4</duration>
                <voice>1</voice>
                <type>quarter</type>
                <stem>up</stem>
                <staff>1</staff>
            </note>
        </measure>
        <measure number="6" width="230.31">
            <harmony print-frame="no">
                <root>
                    <root-step>D</root-step>
                </root>
                <kind text="m">minor</kind>
            </harmony>
            <note default-x="12.00" default-y="-95.00">
                <pitch>
                    <step>D</step>
                    <alter>1</alter><octave>5</octave>
                </pitch>
                <duration>6</duration>
                <voice>1</voice>
                <type>quarter</type>
                <dot />
                <stem>down</stem>
                <staff>1</staff>
            </note>
            <note default-x="88.15" default-y="-100.00">
                <pitch>
                    <step>C</step>
                    <alter>1</alter><octave>5</octave>
                </pitch>
                <duration>2</duration>
                <voice>1</voice>
                <type>eighth</type>
                <stem>down</stem>
                <staff>1</staff>
            </note>
            <note default-x="114.93" default-y="-105.00">
                <pitch>
                    <step>B</step>
                    <octave>4</octave>
                </pitch>
                <duration>2</duration>
                <voice>1</voice>
                <type>eighth</type>
                <stem>down</stem>
                <staff>1</staff>
                <beam number="1">begin</beam>
            </note>
            <note default-x="141.70" default-y="-110.00">
                <pitch>
                    <step>A</step>
                    <alter>1</alter><octave>4</octave>
                </pitch>
                <duration>2</duration>
                <voice>1</voice>
                <type>eighth</type>
                <stem>down</stem>
                <staff>1</staff>
                <beam number="1">end</beam>
            </note>
            <note default-x="175.17" default-y="-115.00">
                <pitch>
                    <step>G</step>
                    <alter>1</alter><octave>4</octave>
                </pitch>
                <duration>4</duration>
                <voice>1</voice>
                <type>quarter</type>
                <stem>down</stem>
                <staff>1</staff>
            </note>
        </measure>
        <measure number="7" width="230.31">
            <harmony print-frame="no">
                <root>
                    <root-step>B</root-step>
                    <root-alter>-1</root-alter>
                </root>
                <kind>major</kind>
            </harmony>
            <note default-x="12.00" default-y="-115.00">
                <pitch>
                    <step>G</step>
                    <alter>1</alter><octave>4</octave>
                </pitch>
                <duration>2</duration>
                <voice>1</voice>
                <type>eighth</type>
                <stem>down</stem>
                <staff>1</staff>
                <beam number="1">begin</beam>
            </note>
            <note default-x="37.50" default-y="-105.00">
                <pitch>
                    <step>B</step>
                    <octave>4</octave>
                </pitch>
                <duration>2</duration>
                <voice>1</voice>
                <type>eighth</type>
                <stem>down</stem>
                <staff>1</staff>
                <beam number="1">continue</beam>
            </note>
            <note default-x="69.37" default-y="-110.00">
                <pitch>
                    <step>A</step>
                    <alter>1</alter><octave>4</octave>
                </pitch>
                <duration>2</duration>
                <voice>1</voice>
                <type>eighth</type>
                <stem>down</stem>
                <staff>1</staff>
                <beam number="1">continue</beam>
            </note>
            <note default-x="94.86" default-y="-115.00">
                <pitch>
                    <step>G</step>
                    <alter>1</alter><octave>4</octave>
                </pitch>
                <duration>2</duration>
                <voice>1</voice>
                <type>eighth</type>
                <stem>down</stem>
                <staff>1</staff>
                <beam number="1">end</beam>
            </note>
            <harmony print-frame="no">
                <root>
                    <root-step>C</root-step>
                </root>
                <kind>major</kind>
            </harmony>
            <note default-x="120.36" default-y="-120.00">
                <pitch>
                    <step>F</step>
                    <alter>1</alter><octave>4</octave>
                </pitch>
                <duration>2</duration>
                <voice>1</voice>
                <type>eighth</type>
                <stem>down</stem>
                <staff>1</staff>
                <beam number="1">begin</beam>
            </note>
            <note default-x="145.85" default-y="-115.00">
                <pitch>
                    <step>G</step>
                    <alter>1</alter><octave>4</octave>
                </pitch>
                <duration>2</duration>
                <voice>1</voice>
                <type>eighth</type>
                <stem>down</stem>
                <staff>1</staff>
                <beam number="1">continue</beam>
            </note>
            <note default-x="177.72" default-y="-130.00">
                <pitch>
                    <step>D</step>
                    <alter>1</alter><octave>4</octave>
                </pitch>
                <duration>2</duration>
                <voice>1</voice>
                <type>eighth</type>
                <stem>down</stem>
                <staff>1</staff>
                <beam number="1">continue</beam>
            </note>
            <note default-x="203.22" default-y="-135.00">
                <pitch>
                    <step>C</step>
                    <alter>1</alter><octave>4</octave>
                </pitch>
                <duration>2</duration>
                <voice>1</voice>
                <type>eighth</type>
                <stem>down</stem>
                <staff>1</staff>
                <beam number="1">end</beam>
            </note>
        </measure>
        <measure number="8" width="230.31">
            <harmony print-frame="no">
                <root>
                    <root-step>F</root-step>
                </root>
                <kind>major</kind>
            </harmony>
            <note default-x="12.00" default-y="-155.00">
                <pitch>
                    <step>F</step>
                    <alter>1</alter><octave>3</octave>
                </pitch>
                <duration>16</duration>
                <voice>1</voice>
                <type>whole</type>
                <staff>1</staff>
            </note>
            <note default-x="12.00" default-y="-140.00">
                <chord />
                <pitch>
                    <step>B</step>
                    <octave>3</octave>
                </pitch>
                <duration>16</duration>
                <voice>1</voice>
                <type>whole</type>
                <staff>1</staff>
            </note>
            <note default-x="12.00" default-y="-130.00">
                <chord />
                <pitch>
                    <step>D</step>
                    <alter>1</alter><octave>4</octave>
                </pitch>
                <duration>16</duration>
                <voice>1</voice>
                <type>whole</type>
                <staff>1</staff>
            </note>
        </measure>
        <measure number="9" width="283.48">
            <print new-system="yes">
                <staff-layout number="1">
                    <staff-distance>65.00</staff-distance>
                </staff-layout>
                <staff-layout number="2">
                    <staff-distance>65.00</staff-distance>
                </staff-layout>
            </print>
            <harmony print-frame="no">
                <root>
                    <root-step>G</root-step>
                </root>
                <kind text="m">minor</kind>
            </harmony>
            <note default-x="77.27" default-y="-100.00">
                <pitch>
                    <step>C</step>
                    <alter>1</alter><octave>5</octave>
                </pitch>
                <duration>4</duration>
                <voice>1</voice>
                <type>quarter</type>
                <stem>down</stem>
                <staff>1</staff>
            </note>
            <note default-x="126.35" default-y="-100.00">
                <pitch>
                    <step>C</step>
                    <alter>1</alter><octave>5</octave>
                </pitch>
                <duration>2</duration>
                <voice>1</voice>
                <type>eighth</type>
                <stem>down</stem>
                <staff>1</staff>
                <beam number="1">begin</beam>
            </note>
            <note default-x="152.96" default-y="-105.00">
                <pitch>
                    <step>B</step>
                    <octave>4</octave>
                </pitch>
                <duration>2</duration>
                <voice>1</voice>
                <type>eighth</type>
                <stem>down</stem>
                <staff>1</staff>
                <beam number="1">end</beam>
            </note>
            <note default-x="179.57" default-y="-125.00">
                <pitch>
                    <step>E</step>
                    <alter>0</alter>
                    <octave>4</octave>
                </pitch>
                <duration>4</duration>
                <voice>1</voice>
                <type>quarter</type>
                <stem>down</stem>
                <staff>1</staff>
            </note>
            <note default-x="228.65" default-y="-125.00">
                <pitch>
                    <step>E</step>
                    <alter>0</alter>
                    <octave>4</octave>
                </pitch>
                <duration>2</duration>
                <voice>1</voice>
                <type>eighth</type>
                <stem>down</stem>
                <staff>1</staff>
                <beam number="1">begin</beam>
            </note>
            <note default-x="255.27" default-y="-115.00">
                <pitch>
                    <step>G</step>
                    <alter>1</alter><octave>4</octave>
                </pitch>
                <duration>2</duration>
                <voice>1</voice>
                <type>eighth</type>
                <stem>down</stem>
                <staff>1</staff>
                <beam number="1">end</beam>
            </note>
        </measure>
        <measure number="10" width="228.21">
            <harmony print-frame="no">
                <root>
                    <root-step>G</root-step>
                </root>
                <kind text="m">minor</kind>
            </harmony>
            <note default-x="12.00" default-y="-95.00">
                <pitch>
                    <step>D</step>
                    <alter>1</alter><octave>5</octave>
                </pitch>
                <duration>4</duration>
                <voice>1</voice>
                <type>quarter</type>
                <stem>down</stem>
                <staff>1</staff>
            </note>
            <note default-x="63.48" default-y="-100.00">
                <pitch>
                    <step>C</step>
                    <alter>1</alter><octave>5</octave>
                </pitch>
                <duration>2</duration>
                <voice>1</voice>
                <type>eighth</type>
                <stem>down</stem>
                <staff>1</staff>
                <beam number="1">begin</beam>
            </note>
            <note default-x="91.39" default-y="-105.00">
                <pitch>
                    <step>B</step>
                    <octave>4</octave>
                </pitch>
                <duration>2</duration>
                <voice>1</voice>
                <type>eighth</type>
                <stem>down</stem>
                <staff>1</staff>
                <beam number="1">end</beam>
            </note>
            <note default-x="119.30" default-y="-125.00">
                <pitch>
                    <step>E</step>
                    <alter>0</alter>
                    <octave>4</octave>
                </pitch>
                <duration>4</duration>
                <voice>1</voice>
                <type>quarter</type>
                <stem>down</stem>
                <staff>1</staff>
            </note>
            <note default-x="170.78" default-y="-115.00">
                <pitch>
                    <step>G</step>
                    <alter>1</alter><octave>4</octave>
                </pitch>
                <duration>2</duration>
                <voice>1</voice>
                <type>eighth</type>
                <stem>down</stem>
                <staff>1</staff>
                <beam number="1">begin</beam>
            </note>
            <note default-x="198.70" default-y="-105.00">
                <pitch>
                    <step>B</step>
                    <octave>4</octave>
                </pitch>
                <duration>2</duration>
                <voice>1</voice>
                <type>eighth</type>
                <stem>down</stem>
                <staff>1</staff>
                <beam number="1">end</beam>
            </note>
        </measure>
        <measure number="11" width="236.63">
            <harmony print-frame="no">
                <root>
                    <root-step>C</root-step>
                </root>
                <kind>major</kind>
            </harmony>
            <note default-x="12.00" default-y="-110.00">
                <pitch>
                    <step>A</step>
                    <alter>1</alter><octave>4</octave>
                </pitch>
                <duration>2</duration>
                <voice>1</voice>
                <type>eighth</type>
                <stem>down</stem>
                <staff>1</staff>
                <beam number="1">begin</beam>
            </note>
            <note default-x="38.24" default-y="-110.00">
                <pitch>
                    <step>A</step>
                    <alter>1</alter><octave>4</octave>
                </pitch>
                <duration>1</duration>
                <voice>1</voice>
                <type>16th</type>
                <stem>down</stem>
                <staff>1</staff>
                <beam number="1">continue</beam>
                <beam number="2">begin</beam>
            </note>
            <note default-x="54.64" default-y="-115.00">
                <pitch>
                    <step>G</step>
                    <alter>1</alter><octave>4</octave>
                </pitch>
                <duration>1</duration>
                <voice>1</voice>
                <type>16th</type>
                <stem>down</stem>
                <staff>1</staff>
                <beam number="1">end</beam>
                <beam number="2">end</beam>
            </note>
            <note default-x="71.04" default-y="-120.00">
                <pitch>
                    <step>F</step>
                    <alter>1</alter><octave>4</octave>
                </pitch>
                <duration>2</duration>
                <voice>1</voice>
                <type>eighth</type>
                <stem>down</stem>
                <staff>1</staff>
                <beam number="1">begin</beam>
            </note>
            <note default-x="97.28" default-y="-120.00">
                <pitch>
                    <step>F</step>
                    <alter>1</alter><octave>4</octave>
                </pitch>
                <duration>2</duration>
                <tie type="start" />
                <voice>1</voice>
                <type>eighth</type>
                <stem>down</stem>
                <staff>1</staff>
                <beam number="1">end</beam>
                <notations>
                    <tied type="start" />
                </notations>
            </note>
            <note default-x="123.51" default-y="-120.00">
                <pitch>
                    <step>F</step>
                    <alter>1</alter><octave>4</octave>
                </pitch>
                <duration>2</duration>
                <tie type="stop" />
                <voice>1</voice>
                <type>eighth</type>
                <stem>down</stem>
                <staff>1</staff>
                <beam number="1">begin</beam>
                <notations>
                    <tied type="stop" />
                </notations>
            </note>
            <note default-x="149.75" default-y="-120.00">
                <pitch>
                    <step>F</step>
                    <alter>1</alter><octave>4</octave>
                </pitch>
                <duration>2</duration>
                <voice>1</voice>
                <type>eighth</type>
                <stem>down</stem>
                <staff>1</staff>
                <beam number="1">continue</beam>
            </note>
            <note default-x="182.55" default-y="-115.00">
                <pitch>
                    <step>G</step>
                    <alter>1</alter><octave>4</octave>
                </pitch>
                <duration>2</duration>
                <voice>1</voice>
                <type>eighth</type>
                <stem>down</stem>
                <staff>1</staff>
                <beam number="1">continue</beam>
            </note>
            <note default-x="208.79" default-y="-120.00">
                <pitch>
                    <step>F</step>
                    <alter>1</alter><octave>4</octave>
                </pitch>
                <duration>2</duration>
                <voice>1</voice>
                <type>eighth</type>
                <stem>down</stem>
                <staff>1</staff>
                <beam number="1">end</beam>
            </note>
        </measure>
        <measure number="12" width="228.21">
            <harmony print-frame="no">
                <root>
                    <root-step>D</root-step>
                </root>
                <kind text="m">minor</kind>
            </harmony>
            <note default-x="12.00" default-y="-140.00">
                <pitch>
                    <step>B</step>
                    <octave>3</octave>
                </pitch>
                <duration>16</duration>
                <voice>1</voice>
                <type>whole</type>
                <staff>1</staff>
            </note>
            <note default-x="12.00" default-y="-130.00">
                <chord />
                <pitch>
                    <step>D</step>
                    <alter>1</alter><octave>4</octave>
                </pitch>
                <duration>16</duration>
                <voice>1</voice>
                <type>whole</type>
                <staff>1</staff>
            </note>
            <note default-x="12.00" default-y="-115.00">
                <chord />
                <pitch>
                    <step>G</step>
                    <alter>1</alter><octave>4</octave>
                </pitch>
                <duration>16</duration>
                <voice>1</voice>
                <type>whole</type>
                <staff>1</staff>
            </note>
        </measure>
        <measure number="13" width="280.60">
            <print new-system="yes">
                <staff-layout number="1">
                    <staff-distance>65.00</staff-distance>
                </staff-layout>
                <staff-layout number="2">
                    <staff-distance>65.00</staff-distance>
                </staff-layout>
            </print>
            <harmony print-frame="no">
                <root>
                    <root-step>G</root-step>
                </root>
                <kind text="m">minor</kind>
            </harmony>
            <note default-x="77.27" default-y="-100.00">
                <pitch>
                    <step>C</step>
                    <alter>1</alter><octave>5</octave>
                </pitch>
                <duration>2</duration>
                <voice>1</voice>
                <type>eighth</type>
                <stem>down</stem>
                <staff>1</staff>
                <beam number="1">begin</beam>
            </note>
            <note default-x="102.16" default-y="-100.00">
                <pitch>
                    <step>C</step>
                    <alter>1</alter><octave>5</octave>
                </pitch>
                <duration>2</duration>
                <voice>1</voice>
                <type>eighth</type>
                <stem>down</stem>
                <staff>1</staff>
                <beam number="1">continue</beam>
            </note>
            <note default-x="133.39" default-y="-100.00">
                <pitch>
                    <step>C</step>
                    <alter>1</alter><octave>5</octave>
                </pitch>
                <duration>2</duration>
                <voice>1</voice>
                <type>eighth</type>
                <stem>down</stem>
                <staff>1</staff>
                <beam number="1">continue</beam>
            </note>
            <note default-x="158.29" default-y="-105.00">
                <pitch>
                    <step>B</step>
                    <octave>4</octave>
                </pitch>
                <duration>2</duration>
                <voice>1</voice>
                <type>eighth</type>
                <stem>down</stem>
                <staff>1</staff>
                <beam number="1">end</beam>
            </note>
            <note default-x="183.18" default-y="-125.00">
                <pitch>
                    <step>E</step>
                    <alter>0</alter>
                    <octave>4</octave>
                </pitch>
                <duration>4</duration>
                <voice>1</voice>
                <type>quarter</type>
                <stem>down</stem>
                <staff>1</staff>
            </note>
            <note default-x="229.21" default-y="-125.00">
                <pitch>
                    <step>E</step>
                    <alter>0</alter>
                    <octave>4</octave>
                </pitch>
                <duration>2</duration>
                <voice>1</voice>
                <type>eighth</type>
                <stem>down</stem>
                <staff>1</staff>
                <beam number="1">begin</beam>
            </note>
            <note default-x="254.10" default-y="-115.00">
                <pitch>
                    <step>G</step>
                    <alter>1</alter><octave>4</octave>
                </pitch>
                <duration>2</duration>
                <voice>1</voice>
                <type>eighth</type>
                <stem>down</stem>
                <staff>1</staff>
                <beam number="1">end</beam>
            </note>
        </measure>
        <measure number="14" width="225.33">
            <harmony print-frame="no">
                <root>
                    <root-step>G</root-step>
                </root>
                <kind text="m">minor</kind>
            </harmony>
            <note default-x="12.00" default-y="-95.00">
                <pitch>
                    <step>D</step>
                    <alter>1</alter><octave>5</octave>
                </pitch>
                <duration>4</duration>
                <voice>1</voice>
                <type>quarter</type>
                <stem>down</stem>
                <staff>1</staff>
            </note>
            <note default-x="62.79" default-y="-100.00">
                <pitch>
                    <step>C</step>
                    <alter>1</alter><octave>5</octave>
                </pitch>
                <duration>2</duration>
                <voice>1</voice>
                <type>eighth</type>
                <stem>down</stem>
                <staff>1</staff>
                <beam number="1">begin</beam>
            </note>
            <note default-x="90.33" default-y="-105.00">
                <pitch>
                    <step>B</step>
                    <octave>4</octave>
                </pitch>
                <duration>2</duration>
                <voice>1</voice>
                <type>eighth</type>
                <stem>down</stem>
                <staff>1</staff>
                <beam number="1">end</beam>
            </note>
            <note default-x="117.86" default-y="-125.00">
                <pitch>
                    <step>E</step>
                    <alter>0</alter>
                    <octave>4</octave>
                </pitch>
                <duration>4</duration>
                <voice>1</voice>
                <type>quarter</type>
                <stem>down</stem>
                <staff>1</staff>
            </note>
            <note default-x="168.65" default-y="-115.00">
                <pitch>
                    <step>G</step>
                    <alter>1</alter><octave>4</octave>
                </pitch>
                <duration>2</duration>
                <voice>1</voice>
                <type>eighth</type>
                <stem>down</stem>
                <staff>1</staff>
                <beam number="1">begin</beam>
            </note>
            <note default-x="196.19" default-y="-105.00">
                <pitch>
                    <step>B</step>
                    <octave>4</octave>
                </pitch>
                <duration>2</duration>
                <voice>1</voice>
                <type>eighth</type>
                <stem>down</stem>
                <staff>1</staff>
                <beam number="1">end</beam>
            </note>
        </measure>
        <measure number="15" width="232.96">
            <harmony print-frame="no">
                <root>
                    <root-step>C</root-step>
                </root>
                <kind>major</kind>
            </harmony>
            <note default-x="12.00" default-y="-110.00">
                <pitch>
                    <step>A</step>
                    <alter>1</alter><octave>4</octave>
                </pitch>
                <duration>2</duration>
                <voice>1</voice>
                <type>eighth</type>
                <stem>down</stem>
                <staff>1</staff>
                <beam number="1">begin</beam>
            </note>
            <note default-x="37.81" default-y="-110.00">
                <pitch>
                    <step>A</step>
                    <alter>1</alter><octave>4</octave>
                </pitch>
                <duration>1</duration>
                <voice>1</voice>
                <type>16th</type>
                <stem>down</stem>
                <staff>1</staff>
                <beam number="1">continue</beam>
                <beam number="2">begin</beam>
            </note>
            <note default-x="53.94" default-y="-115.00">
                <pitch>
                    <step>G</step>
                    <alter>1</alter><octave>4</octave>
                </pitch>
                <duration>1</duration>
                <voice>1</voice>
                <type>16th</type>
                <stem>down</stem>
                <staff>1</staff>
                <beam number="1">end</beam>
                <beam number="2">end</beam>
            </note>
            <note default-x="70.07" default-y="-120.00">
                <pitch>
                    <step>F</step>
                    <alter>1</alter><octave>4</octave>
                </pitch>
                <duration>4</duration>
                <tie type="start" />
                <voice>1</voice>
                <type>quarter</type>
                <stem>down</stem>
                <staff>1</staff>
                <notations>
                    <tied type="start" />
                </notations>
            </note>
            <note default-x="121.68" default-y="-120.00">
                <pitch>
                    <step>F</step>
                    <alter>1</alter><octave>4</octave>
                </pitch>
                <duration>2</duration>
                <tie type="stop" />
                <voice>1</voice>
                <type>eighth</type>
                <stem>down</stem>
                <staff>1</staff>
                <beam number="1">begin</beam>
                <notations>
                    <tied type="stop" />
                </notations>
            </note>
            <note default-x="147.49" default-y="-120.00">
                <pitch>
                    <step>F</step>
                    <alter>1</alter><octave>4</octave>
                </pitch>
                <duration>2</duration>
                <voice>1</voice>
                <type>eighth</type>
                <stem>down</stem>
                <staff>1</staff>
                <beam number="1">continue</beam>
            </note>
            <note default-x="179.75" default-y="-115.00">
                <pitch>
                    <step>G</step>
                    <alter>1</alter><octave>4</octave>
                </pitch>
                <duration>2</duration>
                <voice>1</voice>
                <type>eighth</type>
                <stem>down</stem>
                <staff>1</staff>
                <beam number="1">continue</beam>
            </note>
            <note default-x="205.56" default-y="-120.00">
                <pitch>
                    <step>F</step>
                    <alter>1</alter><octave>4</octave>
                </pitch>
                <duration>2</duration>
                <voice>1</voice>
                <type>eighth</type>
                <stem>down</stem>
                <staff>1</staff>
                <beam number="1">end</beam>
            </note>
        </measure>
        <measure number="16" width="237.63">
            <harmony print-frame="no">
                <root>
                    <root-step>D</root-step>
                </root>
                <kind text="m">minor</kind>
            </harmony>
            <note default-x="12.00" default-y="-105.00">
                <pitch>
                    <step>B</step>
                    <octave>4</octave>
                </pitch>
                <duration>1</duration>
                <voice>1</voice>
                <type>16th</type>
                <stem>down</stem>
                <staff>1</staff>
                <beam number="1">begin</beam>
                <beam number="2">begin</beam>
            </note>
            <note default-x="28.69" default-y="-110.00">
                <pitch>
                    <step>A</step>
                    <alter>1</alter><octave>4</octave>
                </pitch>
                <duration>1</duration>
                <voice>1</voice>
                <type>16th</type>
                <stem>down</stem>
                <staff>1</staff>
                <beam number="1">continue</beam>
                <beam number="2">end</beam>
            </note>
            <note default-x="45.39" default-y="-115.00">
                <pitch>
                    <step>G</step>
                    <alter>1</alter><octave>4</octave>
                </pitch>
                <duration>2</duration>
                <tie type="start" />
                <voice>1</voice>
                <type>eighth</type>
                <stem>down</stem>
                <staff>1</staff>
                <beam number="1">end</beam>
                <notations>
                    <tied type="start" />
                </notations>
            </note>
            <note default-x="79.56" default-y="-140.00">
                <pitch>
                    <step>B</step>
                    <octave>3</octave>
                </pitch>
                <duration>12</duration>
                <voice>1</voice>
                <type>half</type>
                <dot />
                <stem>up</stem>
                <staff>1</staff>
            </note>
            <note default-x="79.56" default-y="-130.00">
                <chord />
                <pitch>
                    <step>D</step>
                    <alter>1</alter><octave>4</octave>
                </pitch>
                <duration>12</duration>
                <voice>1</voice>
                <type>half</type>
                <dot />
                <stem>up</stem>
                <staff>1</staff>
            </note>
            <note default-x="79.56" default-y="-115.00">
                <chord />
                <pitch>
                    <step>G</step>
                    <alter>1</alter><octave>4</octave>
                </pitch>
                <duration>12</duration>
                <tie type="stop" />
                <voice>1</voice>
                <type>half</type>
                <dot />
                <stem>up</stem>
                <staff>1</staff>
                <notations>
                    <tied type="stop" />
                </notations>
            </note>
        </measure>
    </part>
</score-partwise>